<svg id="visual" viewBox="0 0 960 540" width="960" height="540" xmlns="http://www.w3.org/2000/svg" xmlns:xlink="http://www.w3.org/1999/xlink" version="1.1"><rect x="0" y="0" width="960" height="540" fill="#f9f9f9"></rect><defs><linearGradient id="grad1_0" x1="43.8%" y1="0%" x2="100%" y2="100%"><stop offset="14.444444444444446%" stop-color="#3c3cfa" stop-opacity="1"></stop><stop offset="85.55555555555554%" stop-color="#3c3cfa" stop-opacity="1"></stop></linearGradient></defs><defs><linearGradient id="grad1_1" x1="43.8%" y1="0%" x2="100%" y2="100%"><stop offset="14.444444444444446%" stop-color="#3c3cfa" stop-opacity="1"></stop><stop offset="85.55555555555554%" stop-color="#9579fc" stop-opacity="1"></stop></linearGradient></defs><defs><linearGradient id="grad1_2" x1="43.8%" y1="0%" x2="100%" y2="100%"><stop offset="14.444444444444446%" stop-color="#ccb8fc" stop-opacity="1"></stop><stop offset="85.55555555555554%" stop-color="#9579fc" stop-opacity="1"></stop></linearGradient></defs><defs><linearGradient id="grad1_3" x1="43.8%" y1="0%" x2="100%" y2="100%"><stop offset="14.444444444444446%" stop-color="#ccb8fc" stop-opacity="1"></stop><stop offset="85.55555555555554%" stop-color="#f9f9f9" stop-opacity="1"></stop></linearGradient></defs><defs><linearGradient id="grad2_0" x1="0%" y1="0%" x2="56.3%" y2="100%"><stop offset="14.444444444444446%" stop-color="#3c3cfa" stop-opacity="1"></stop><stop offset="85.55555555555554%" stop-color="#3c3cfa" stop-opacity="1"></stop></linearGradient></defs><defs><linearGradient id="grad2_1" x1="0%" y1="0%" x2="56.3%" y2="100%"><stop offset="14.444444444444446%" stop-color="#9579fc" stop-opacity="1"></stop><stop offset="85.55555555555554%" stop-color="#3c3cfa" stop-opacity="1"></stop></linearGradient></defs><defs><linearGradient id="grad2_2" x1="0%" y1="0%" x2="56.3%" y2="100%"><stop offset="14.444444444444446%" stop-color="#9579fc" stop-opacity="1"></stop><stop offset="85.55555555555554%" stop-color="#ccb8fc" stop-opacity="1"></stop></linearGradient></defs><defs><linearGradient id="grad2_3" x1="0%" y1="0%" x2="56.3%" y2="100%"><stop offset="14.444444444444446%" stop-color="#f9f9f9" stop-opacity="1"></stop><stop offset="85.55555555555554%" stop-color="#ccb8fc" stop-opacity="1"></stop></linearGradient></defs><g transform="translate(960, 0)"><path d="M0 341C-76.4 351.4 -152.9 361.9 -187.5 324.8C-222.1 287.7 -214.9 203 -244.2 141C-273.5 79 -339.3 39.5 -405 0L0 0Z" fill="#e3d8fb"></path><path d="M0 255.8C-57.3 263.6 -114.7 271.4 -140.6 243.6C-166.6 215.7 -161.2 152.3 -183.2 105.8C-205.1 59.2 -254.4 29.6 -303.7 0L0 0Z" fill="#b299fc"></path><path d="M0 170.5C-38.2 175.7 -76.4 180.9 -93.7 162.4C-111.1 143.8 -107.5 101.5 -122.1 70.5C-136.8 39.5 -169.6 19.7 -202.5 0L0 0Z" fill="#715bfb"></path><path d="M0 85.3C-19.1 87.9 -38.2 90.5 -46.9 81.2C-55.5 71.9 -53.7 50.8 -61.1 35.3C-68.4 19.7 -84.8 9.9 -101.2 0L0 0Z" fill="#3c3cfa"></path></g><g transform="translate(0, 540)"><path d="M0 -248C72.7 -305 145.3 -361.9 202.5 -350.7C259.7 -339.6 301.4 -260.3 330 -190.5C358.5 -120.7 373.7 -60.3 389 0L0 0Z" fill="#e3d8fb"></path><path d="M0 -186C54.5 -228.7 109 -271.4 151.9 -263.1C194.8 -254.7 226.1 -195.2 247.5 -142.9C268.8 -90.5 280.3 -45.3 291.8 0L0 0Z" fill="#b299fc"></path><path d="M0 -124C36.3 -152.5 72.7 -181 101.2 -175.4C129.8 -169.8 150.7 -130.2 165 -95.3C179.2 -60.3 186.9 -30.2 194.5 0L0 0Z" fill="#715bfb"></path><path d="M0 -62C18.2 -76.2 36.3 -90.5 50.6 -87.7C64.9 -84.9 75.4 -65.1 82.5 -47.6C89.6 -30.2 93.4 -15.1 97.3 0L0 0Z" fill="#3c3cfa"></path></g></svg>